<svg width="2869" height="1849" viewBox="0 0 2869 1849" fill="none" xmlns="http://www.w3.org/2000/svg">
<path d="M0 1791.66C1.98 1791.66 33.08 1791.65 35.01 1791.63C170.1 1790 190.95 1731.03 246.34 1574.39C252.76 1556.24 259.64 1536.77 268.72 1511.82C305.97 1409.46 340.13 1314.48 372.23 1224.57C405.78 1130.62 430.93 1059.54 454.97 991.55C461.29 973.69 462.98 968.79 464.56 964.2C492 884.74 500.26 860.81 559.12 860.81C616.59 860.81 628.67 894.44 650.05 953.96C652.19 959.92 654.46 966.24 658.56 977.15C718.95 1137.91 786.08 1327.44 786.27 1327.99L797.87 1360.7L763.16 1360.59C762.87 1360.59 674.06 1360.26 571.6 1360.26C561.82 1360.26 552.23 1364.18 545.31 1371.11H545.21C539.08 1377.24 535.1 1386 535.1 1396.75C535.1 1398.67 535.04 1398.1 535.06 1398.73C535.42 1407.85 538.24 1416.95 543.89 1423.53C548.9 1429.37 556.9 1433.32 568.45 1433.32C570.49 1433.32 570.09 1433.37 570.65 1433.35C654.92 1430 809.59 1433.34 810.04 1433.35L827.31 1433.7L832.77 1450.03C832.91 1450.44 880.28 1593.04 913.64 1677.93C917.72 1688.31 922.65 1701.56 927.23 1713.89C940.95 1750.76 950.65 1776.82 965.95 1789.36L966.27 1641.01L1009.28 1691.99C1009.54 1692.3 1098.41 1799.07 1217.9 1799.07C1222.08 1799.07 1224.76 1799.05 1225.96 1799C1282.6 1796.95 1336.86 1773.41 1377 1736.86C1416.33 1701.05 1441.76 1652.81 1441.76 1600.5C1441.76 1597.06 1441.75 1595.09 1441.74 1594.61C1439.67 1537.41 1430.45 1493.09 1400.24 1457.76C1368.81 1421.01 1313.76 1391.45 1220.05 1364.24C1117.1 1334.35 1050.54 1298.33 1009.25 1257.23C965.4 1213.57 949.65 1165.02 949.65 1112.47C949.65 1026.08 978.91 967.36 1019.85 927.97C1078.92 871.14 1161.49 856.44 1214.8 856.44C1268.12 856.44 1351.81 869.67 1412.34 926.94C1429.22 942.91 1444.2 962.16 1456.12 985.31L1455.73 946.26L1455.75 946.02C1455.77 945.77 1462.03 858.54 1549.51 858.54H1918.28C1965.41 858.54 1993.62 880.84 2006.15 909.26C2010.94 920.14 2013.24 931.98 2013.28 943.85C2013.31 955.35 2011.1 966.87 2006.89 977.5C1995.57 1006.06 1970.18 1028.29 1934.51 1028.29H1631.35V1313.36H1827.73C1867.25 1313.36 1892.88 1336.1 1904.2 1365.17C1908.34 1375.81 1910.42 1387.35 1910.43 1398.89C1910.44 1410.48 1908.37 1422.05 1904.21 1432.67C1892.88 1461.57 1867.19 1484.12 1826.9 1484.12H1638.28L1638.99 1726.51H2073.02V859.59L2097.57 859.64C2098.07 859.64 2268.65 859.84 2411.3 859.64H2412.27C2464.59 859.95 2517.74 888.98 2557.34 939.17C2595.45 987.47 2621.37 1055.78 2621.48 1136.75V1139.49C2620.21 1351.14 2450.9 1405.1 2363.98 1418.87L2703.39 1798.22H2868.21V1847.32H2681.71L2259.26 1375.15L2313.34 1374.7C2314.08 1374.7 2571.16 1374.89 2572.57 1139.3L2572.58 1136.75C2572.48 1067.57 2550.82 1009.82 2518.99 969.47C2488.64 931.01 2449.48 908.78 2412.08 908.55H2411.3C2301.18 908.7 2174.44 908.62 2122.12 908.57V1775.59H1590.21L1589.27 1435.01H1826.91C1843.66 1435.01 1854.13 1426.16 1858.58 1414.82C1860.56 1409.76 1861.55 1404.3 1861.55 1398.87C1861.55 1393.37 1860.55 1387.87 1858.58 1382.79C1854.13 1371.37 1843.83 1362.43 1827.75 1362.43H1582.27V979.17H1934.53C1947.58 979.17 1957.07 970.54 1961.46 959.45C1963.42 954.472 1964.41 949.168 1964.39 943.82C1964.38 938.8 1963.38 933.72 1961.29 928.99C1956.01 917.01 1942.45 907.61 1918.3 907.61H1549.53C1509.44 907.61 1505 946.49 1504.69 949.8L1506.57 1137.11L1436.47 1138.42L1436.14 1113.8C1435.17 1041.06 1411.48 993.33 1378.79 962.4C1329.95 916.19 1259.83 905.52 1214.82 905.52C1170.17 905.52 1101.48 917.38 1053.82 963.24C1021.71 994.13 998.77 1041.36 998.77 1112.45C998.77 1152.57 1010.67 1189.51 1043.8 1222.49C1079.49 1258.03 1139.27 1289.82 1233.69 1317.23C1337.35 1347.33 1399.71 1381.75 1437.47 1425.91C1476.45 1471.5 1488.21 1525.03 1490.67 1592.87C1490.81 1596.91 1490.89 1599.45 1490.89 1600.49C1490.89 1667.39 1459.14 1728.38 1410.03 1773.1C1361.72 1817.09 1296.24 1845.42 1227.73 1847.9C1223 1848.07 1219.72 1848.16 1217.94 1848.16C1130.71 1848.16 1058.15 1801.56 1014.95 1765.38L1014.78 1846.8L990.38 1846.73C924.45 1846.54 908.7 1804.21 881.44 1730.95C877.8 1721.16 873.89 1710.66 868.04 1695.76C841.44 1628.08 805.45 1522.25 791.88 1481.92C749.51 1481.18 638.97 1479.62 572.62 1482.25L568.51 1482.41C540.96 1482.41 520.6 1471.5 506.75 1455.37C493.54 1439.98 486.99 1420 486.22 1400.66L486.06 1396.76C486.06 1372.09 495.77 1351.41 510.71 1336.45L510.66 1336.4C526.77 1320.3 549.02 1311.17 571.66 1311.17C588.04 1311.17 677.85 1311.43 728.47 1311.59C706.58 1250.24 657.45 1113.33 612.78 994.42C610.62 988.68 607.24 979.26 604.08 970.47C590.18 931.78 582.34 909.92 559.18 909.92C535.08 909.92 529.47 926.17 510.84 980.13C506.61 992.39 501.98 1005.8 501.25 1007.86C473.69 1085.79 445.38 1165.83 418.51 1241.07C390.19 1320.36 356.97 1412.66 314.8 1528.51C307.7 1548.01 299.9 1570.09 292.61 1590.7C228.73 1771.37 204.76 1839.15 35.44 1840.75C33.39 1840.77 2.16 1840.78 0.05 1840.78V1791.68L0 1791.66Z" fill="url(#paint0_linear_0_1)"/>
<path d="M1971.47 587.66L2462.7 166.15M2456.2 666.78L2545.14 402.12M2603.9 232.5C2598.71 259.08 2584.39 306.76 2565.21 355.22C2544.34 407.98 2517.72 461.69 2490.88 490.13C2481.48 500.1 2471.57 507.74 2463.04 515.31C2431.77 543.06 2411.79 563.06 2372.92 584.99C2368.06 587.73 2359.89 591.98 2348.74 597.94C2333.19 606.24 2319.69 612.74 2303.45 619.83L2297.98 622.19C2291.86 624.8 2285.63 627.34 2279.28 629.84L2274 631.89C2267.33 634.45 2260.53 636.93 2253.62 639.35L2248.78 641.02C2241.4 643.541 2233.99 645.954 2226.54 648.26L2222.55 649.47C2214.79 651.82 2206.9 654.09 2198.85 656.27L2195.12 657.27C2187.04 659.42 2178.82 661.48 2170.44 663.45L2166.42 664.39C2157.7 666.394 2148.95 668.274 2140.17 670.03L2136.63 670.74C2127.4 672.55 2117.99 674.26 2108.42 675.86L2105.33 676.37C2095.52 677.98 2085.54 679.47 2075.37 680.84L2073.04 681.15C2062.52 682.55 2051.83 683.82 2040.92 684.96L2039.78 685.08C2028.62 686.237 2017.45 687.237 2006.27 688.08L2004.55 688.21C1993.1 689.07 1981.43 689.78 1969.56 690.35L1967.94 690.43C1955.94 691 1943.72 691.41 1931.29 691.69L1930.13 691.71C1917.64 691.97 1904.94 692.08 1892.01 692.04L1890.58 692.03C1877.49 691.97 1864.18 691.76 1850.63 691.37C2003.66 88.6299 2228.95 3.39992 2628.1 35.7399M2677.93 111.63C2844.79 395.14 2749.89 615.68 2404.42 795.2C2384.87 714.95 2384.54 727.57 2375.39 675.25M2145.54 208.69L2391.33 228.75M2040.21 384.24L2191.02 389.26M2381.3 238.78L2366.25 479.55M2189.84 398.68L2164.76 574.24M2570.43 363.55L2632.86 500.07M2502.12 539.13L2538.41 618.46" stroke="#499B60" stroke-width="58.29" stroke-miterlimit="22.9256" stroke-linecap="round"/>
<defs>
<linearGradient id="paint0_linear_0_1" x1="167" y1="1522.26" x2="2702.06" y2="1452.56" gradientUnits="userSpaceOnUse">
<stop stop-color="#499B60"/>
<stop offset="1" stop-color="#F69D3E"/>
</linearGradient>
</defs>
</svg>
