<svg id="Capa_1" data-name="Capa 1" xmlns="http://www.w3.org/2000/svg" viewBox="0 0 1254.18 227.13"><defs><style>.cls-1{fill:#62451a;}</style></defs><path class="cls-1" d="M238.56,190.09c-2.06.18-3.51.43-5,.43-10.83,0-21.66.18-32.48-.13-2.06-.06-4.06-2-6.09-3-3.27-1.67-6.53-4.7-9.83-4.75-25.32-.4-50.65-.29-76-.19-6.93,0-10.38,3-12,9.67q-5.44,22-10.81,44.07c-1.76,7.29,2.12,12.89,9.57,13.92a25.34,25.34,0,0,0,3.49.16h96c9.41-.25,13.35-4.55,12.5-14.45h15.88c7.17,0,14.33.1,21.5,0,3-.06,4.4,1,5.06,4.06,2.5,11.55,5.29,23,8,34.57,1.24,5.37-1.29,10.06-6.56,11.69a22.17,22.17,0,0,1-6.39.83q-95,.07-190,0a22.09,22.09,0,0,1-6.37-.9c-7.12-2.18-9.27-6-7.51-13.24q8.09-33.5,16.32-66.94c3.8-15.51,7.69-31,11.55-46.5,1.51-6.08,4.91-8.88,11.24-9.22,1.5-.08,3,0,4.5,0h131c9.73,0,12.82,2,15.45,11.42S236.18,180.25,238.56,190.09Z" transform="translate(-40.95 -59.87)"/><path class="cls-1" d="M1295.12,286.8h-35.75c-1.65-6.69-3.25-13.31-4.91-19.91-1.93-7.67-5.52-10.5-13.48-10.51q-45.21,0-90.44,0c-9,0-11.86,2.27-14,10.9-1.37,5.49-2.53,11.05-4.14,16.46-.39,1.3-2.17,3.08-3.34,3.11-11,.24-22,.14-33.38.14,3.37-13.85,6.62-27.23,9.88-40.62q10.51-43.16,21-86.33c1.78-7.28,5.05-9.88,12.71-9.89q55.47-.06,110.93,0c9.34,0,13.1,3.4,15.23,12.38,8.08,34,16.31,67.93,24.45,101.9C1291.64,271.68,1293.3,279,1295.12,286.8Zm-99.44-60.43v0c11.49,0,23,.16,34.47-.06,8.8-.16,13.28-5.69,11.55-14.09-1.64-8-3.59-15.89-5.55-23.8-1.12-4.54-4.29-7.08-8.83-7.69a75.93,75.93,0,0,0-10.43-.7c-17,.12-34,.41-50.92.55-5.33.05-9.17,2.46-10.58,7.45-2.46,8.79-4.53,17.71-6.46,26.64-1,4.67,1.09,8.26,5.6,9.88a28,28,0,0,0,8.68,1.76C1174,226.49,1184.86,226.37,1195.68,226.37Z" transform="translate(-40.95 -59.87)"/><path class="cls-1" d="M464.77,287c-11.65,0-22.62.08-33.58-.14-1,0-2.57-1.82-2.93-3.07-1.71-5.91-3-11.92-4.61-17.87-1.77-6.74-5.2-9.49-12.12-9.5q-46.24,0-92.49,0c-7.48,0-10.86,2.78-12.68,10.09-1.68,6.75-3.29,13.52-4.92,20.23h-36c.5-2.42.84-4.49,1.34-6.52q14.9-60.87,29.76-121.75c1.1-4.55,3.92-6.83,8.05-7.82a27.69,27.69,0,0,1,6.45-.49q53.73,0,107.48,0c12.33,0,14.8,4.21,16.95,13.43,9.1,39.07,18.62,78,28,117.06C463.92,282.53,464.25,284.44,464.77,287Zm-99.19-60.59v0c11.48,0,23,.18,34.43-.06,8.84-.18,13.33-6.17,11.41-14.72-1.68-7.46-3.57-14.87-5.26-22.32-1.14-5-4.41-7.76-9.26-8.51a63.67,63.67,0,0,0-10.42-.72c-17,.13-33.9.38-50.84.61-5.77.08-9.62,2.71-11.07,8.17-2.21,8.35-4.14,16.78-6.06,25.21-1.06,4.67.69,8.37,5,10.22a25.39,25.39,0,0,0,9.1,2.06C343.63,226.51,354.61,226.37,365.58,226.37Z" transform="translate(-40.95 -59.87)"/><path class="cls-1" d="M851.47,286.53c-1.58-6.38-3.19-13-4.83-19.56-2-7.92-5.29-10.59-13.31-10.6q-45.23,0-90.44,0c-9,0-11.78,2.22-14,10.87-1.65,6.42-3.22,12.86-4.88,19.48H688.44c.25-1.79.32-3.4.7-4.93q15.15-62.06,30.38-124.08c1.23-5,5.18-7.54,12-7.57,15.16-.06,30.31,0,45.47,0q32.47,0,64.95,0c9.79,0,13.69,3,15.9,12.21q14.5,60.41,29,120.81c.23,1,.29,1.93.49,3.38Zm-63.06-60.17c11.14,0,22.29.11,33.43,0,9.75-.13,14.3-6.06,12.09-15.41-1.69-7.12-3.35-14.24-5.12-21.33-1.5-6-4.69-8.87-10.91-8.92q-30.39-.22-60.8,0c-5.07,0-8.49,3-9.76,7.83-2.25,8.52-4.27,17.1-6.17,25.7-1,4.64.75,8.37,5.18,10.14a26.87,26.87,0,0,0,9.12,2C766.45,226.51,777.43,226.37,788.41,226.36Z" transform="translate(-40.95 -59.87)"/><path class="cls-1" d="M674.54,286.75h-36c-3.25-13.3-6.53-26.52-9.72-39.76-4.49-18.62-8.89-37.25-13.39-55.86-1.78-7.36-5.47-10.18-13.2-10.2q-27,0-54,0c-9.59,0-12.59,2.59-14.81,12q-10.53,44.7-21.23,89.35c-.34,1.44-.83,2.85-1.31,4.47H475.42a47.78,47.78,0,0,1,.64-4.93q15-61.59,30.13-123.16c1.42-5.82,5.17-8.44,12.29-8.49,12-.08,24,0,36,0q37,0,74,0c10.6,0,14.24,3.06,16.65,13.19q12.34,52,24.87,103.86C671.45,273.46,672.9,279.75,674.54,286.75Z" transform="translate(-40.95 -59.87)"/><path class="cls-1" d="M1038.77,241.66c11.12,0,21.92-.11,32.72.15,1.2,0,3,1.89,3.4,3.22,2.4,9.19,4.66,18.41,6.6,27.7,1.67,8-3.52,14.2-11.71,14.21q-78.24.07-156.47,0c-11.16,0-15.38-5.61-12.74-16.31,9.11-37,18.27-74,27.21-111,1.33-5.49,4.37-9,9.7-9.13,13.94-.37,27.9-.13,42.54-.13-2.37,10.24-4.63,20-6.92,29.92-1.69.14-3,.29-4.31.36-7.74.4-10.67,2.69-12.53,10.29q-6.37,25.93-12.56,51.91c-1.76,7.38,1.81,12.66,9.41,13.25,6.29.48,12.65.29,19,.3q24.74,0,49.48,0c1.17,0,2.34,0,3.5,0C1035.18,256.13,1038.81,252.44,1038.77,241.66Z" transform="translate(-40.95 -59.87)"/><path class="cls-1" d="M74.85,116.1V60.5H92.74v55.6Z" transform="translate(-40.95 -59.87)"/><path class="cls-1" d="M107.21,60.5h20.18l29.4,35.66h.34V60.5h14.93v55.6H155.88L122.37,75.51H122V116.1H107.21Z" transform="translate(-40.95 -59.87)"/><path class="cls-1" d="M182.43,88.46c0-18.19,14.93-28.59,39.89-28.59a72.15,72.15,0,0,1,23,3.25v9.77h-5.93c-4-2.22-8-3.89-16.75-3.89-13.79,0-21.54,5.32-21.54,19s6.26,20.26,19.14,20.26a47.45,47.45,0,0,0,11.06-1V95.13H220.39v-8h28.37v25.41c-8,2.86-17.77,4.21-28.49,4.21C196.57,116.73,182.43,106.65,182.43,88.46Z" transform="translate(-40.95 -59.87)"/><path class="cls-1" d="M262.1,60.5h52.54v9h-35V83.62h25.07v8.49H279.65v15.25h36.24v8.74H262.1Z" transform="translate(-40.95 -59.87)"/><path class="cls-1" d="M326.72,60.5h20.17L376.3,96.16h.34V60.5h14.93v55.6H375.39L341.88,75.51h-.34V116.1H326.72Z" transform="translate(-40.95 -59.87)"/><path class="cls-1" d="M406.05,116.1V60.5h17.89v55.6Z" transform="translate(-40.95 -59.87)"/><path class="cls-1" d="M438.41,60.5H491v9H456V83.62H481v8.49H456v15.25h36.25v8.74h-53.8Z" transform="translate(-40.95 -59.87)"/><path class="cls-1" d="M531.18,94.34H520.81V116.1H503V60.5h26.79c19.6,0,30.65,5.56,30.65,16.28,0,7.39-4.67,12.4-12.76,15.17l16.75,20.89v3.26H548.17Zm-10.37-8.5h8.55c9.35,0,13.22-2.86,13.22-8.34s-3.87-8.18-13.22-8.18h-8.55Z" transform="translate(-40.95 -59.87)"/><path class="cls-1" d="M575.41,116.1V60.5H593.3v55.6Z" transform="translate(-40.95 -59.87)"/><path class="cls-1" d="M603.21,112.84,629.66,60.5H648l26.56,52.34v3.26H657.35L650.74,102h-26.9l-6.38,14.14H603.21ZM627.6,93.46h19.15L637.18,73H637Z" transform="translate(-40.95 -59.87)"/><path class="cls-1" d="M705.67,60.5h52.54v9h-35V83.62H748.3v8.49H723.22v15.25h36.25v8.74h-53.8Z" transform="translate(-40.95 -59.87)"/><path class="cls-1" d="M770.3,116.1V60.5h17.77v46.86H821v8.74Z" transform="translate(-40.95 -59.87)"/><path class="cls-1" d="M831.5,60.5H884v9h-35V83.62h25.07v8.49H849.05v15.25h36.24v8.74H831.5Z" transform="translate(-40.95 -59.87)"/><path class="cls-1" d="M890.76,88.46c0-17.79,16.3-28.59,39.43-28.59,10.95,0,17.1,1.43,23.25,3.65v9.29h-6.38c-3.42-2.22-8.55-4-16.41-4C916.75,68.84,909,75.59,909,88c0,13.51,7,19.86,20.63,19.86,9.45,0,14.7-2.46,19.14-5.56h5.59v9.13c-6,3.18-14.36,5.32-25.53,5.32C905.81,116.73,890.76,106.25,890.76,88.46Z" transform="translate(-40.95 -59.87)"/><path class="cls-1" d="M981.94,116.1V69.24H960.17V60.5h61.43v8.74H999.72V116.1Z" transform="translate(-40.95 -59.87)"/><path class="cls-1" d="M1059.55,94.34h-10.37V116.1H1031.4V60.5h26.79c19.6,0,30.65,5.56,30.65,16.28,0,7.39-4.67,12.4-12.76,15.17l16.75,20.89v3.26h-16.3Zm-10.37-8.5h8.55c9.35,0,13.22-2.86,13.22-8.34s-3.87-8.18-13.22-8.18h-8.55Z" transform="translate(-40.95 -59.87)"/><path class="cls-1" d="M1103.77,116.1V60.5h17.9v55.6Z" transform="translate(-40.95 -59.87)"/><path class="cls-1" d="M1132.49,88.46c0-17.79,16.3-28.59,39.44-28.59,10.94,0,17.09,1.43,23.25,3.65v9.29h-6.39c-3.41-2.22-8.54-4-16.41-4-13.9,0-21.65,6.75-21.65,19.14,0,13.51,7,19.86,20.63,19.86,9.46,0,14.7-2.46,19.14-5.56h5.59v9.13c-6,3.18-14.36,5.32-25.53,5.32C1147.54,116.73,1132.49,106.25,1132.49,88.46Z" transform="translate(-40.95 -59.87)"/><path class="cls-1" d="M1202.24,112.84l26.44-52.34H1247l26.56,52.34v3.26h-17.21L1249.77,102h-26.9l-6.38,14.14h-14.25Zm24.39-19.38h19.15L1236.21,73H1236Z" transform="translate(-40.95 -59.87)"/></svg>